<svg xmlns="http://www.w3.org/2000/svg" viewBox="0 0 124.12 88.03"><defs><style>.cls-1{fill:none;}.cls-2{fill:#15cbe3;}</style></defs><title>Logo_C_Bleu</title><g id="Calque_2" data-name="Calque 2"><rect class="cls-1" x="10.63" y="10.63" width="102.62" height="66.76"/></g><g id="Calque_3" data-name="Calque 3"><path class="cls-2" d="M91.35,27.62a33.18,33.18,0,0,0-20.1-15.76,33.34,33.34,0,0,0-29,5.44A33.09,33.09,0,0,0,30.14,35a34.48,34.48,0,0,0-1,4.77l5.69-2.89c0-.17.08-.35.13-.52a28.09,28.09,0,0,1,10.3-15.06,28.48,28.48,0,0,1,17-5.67,28.34,28.34,0,0,1,17,51A28.26,28.26,0,0,1,54.67,71.3a28.09,28.09,0,0,1-8.18-3.76l-7.1.77A33.61,33.61,0,0,0,62.3,77.39h0a33.63,33.63,0,0,0,20-6.67,33.38,33.38,0,0,0,9-43.1Z"/><path class="cls-2" d="M38.19,58.91l-5.11,1.24.13.25c.5.87,1,1.72,1.59,2.53l4.92-1.78C39.18,60.43,38.67,59.69,38.19,58.91Z"/><path class="cls-2" d="M34.22,48l-4.89,1.4a32.39,32.39,0,0,0,1.13,4.72L35,51.69A28.23,28.23,0,0,1,34.22,48Z"/><path class="cls-2" d="M67.4,52.59a6.67,6.67,0,0,1-3.22,1c-2.76.16-4.84-.55-6.21-2.13a8.21,8.21,0,0,1-1.72-6.39,10.78,10.78,0,0,1,2.83-6.65,9.47,9.47,0,0,1,6.62-2.86,6.15,6.15,0,0,1,3.06.59A5.19,5.19,0,0,1,70.87,38l7.78-8A11.59,11.59,0,0,0,73,26.57a21.33,21.33,0,0,0-6.49-.69,23.58,23.58,0,0,0-11,3.41L10.63,52.05,46,42a21.86,21.86,0,0,0-.61,3.69,20.78,20.78,0,0,0,0,3.44L26,59.27l20.71-5A14.41,14.41,0,0,0,49.94,59c.3.29.63.56,1,.83L32.18,66.56,62.3,63.28l1.12,0a21.17,21.17,0,0,0,3.06-.42l.13,0h0a27.42,27.42,0,0,0,3.44-1,17.43,17.43,0,0,0,6.34-4l-6.54-7.21A11.61,11.61,0,0,1,67.4,52.59Z"/></g></svg>